<svg xmlns="http://www.w3.org/2000/svg" xmlns:xlink="http://www.w3.org/1999/xlink" xmlns:lucid="lucid" width="1483" height="2063"><g transform="translate(-618.5 -298.5)" lucid:page-tab-id="0_0"><path d="M500 0h2000v2500H500z" fill="#fff"/><path d="M844.66 320.47A9.05 9.05 0 0 0 853 326h121a6 6 0 0 1 6 6v202a6 6 0 0 1-6 6H626a6 6 0 0 1-6-6V306a6 6 0 0 1 6-6h204a9.05 9.05 0 0 1 8.34 5.53zM620 326h227" stroke="#000" stroke-width="3" fill="#fff"/><use xlink:href="#a" transform="matrix(1,0,0,1,632,334) translate(0 118.40104166666667)"/><path d="M1404.66 320.47A9.05 9.05 0 0 0 1413 326h121a6 6 0 0 1 6 6v202a6 6 0 0 1-6 6h-348a6 6 0 0 1-6-6V306a6 6 0 0 1 6-6h204a9.05 9.05 0 0 1 8.34 5.53zM1180 326h227" stroke="#000" stroke-width="3" fill="#fff"/><use xlink:href="#b" transform="matrix(1,0,0,1,1192,334) translate(0 118.40104166666667)"/><path d="M1404.66 580.47A9.05 9.05 0 0 0 1413 586h121a6 6 0 0 1 6 6v202a6 6 0 0 1-6 6h-348a6 6 0 0 1-6-6V566a6 6 0 0 1 6-6h204a9.05 9.05 0 0 1 8.34 5.53zM1180 586h227" stroke="#000" stroke-width="3" fill="#fff"/><use xlink:href="#c" transform="matrix(1,0,0,1,1192,594) translate(0 118.40104166666667)"/><path d="M1404.66 840.47A9.05 9.05 0 0 0 1413 846h121a6 6 0 0 1 6 6v202a6 6 0 0 1-6 6h-348a6 6 0 0 1-6-6V826a6 6 0 0 1 6-6h204a9.05 9.05 0 0 1 8.34 5.53zM1180 846h227" stroke="#000" stroke-width="3" fill="#fff"/><use xlink:href="#d" transform="matrix(1,0,0,1,1192,854) translate(0 118.40104166666667)"/><path d="M1964.66 340.47A9.05 9.05 0 0 0 1973 346h121a6 6 0 0 1 6 6v202a6 6 0 0 1-6 6h-348a6 6 0 0 1-6-6V326a6 6 0 0 1 6-6h204a9.05 9.05 0 0 1 8.34 5.53zM1740 346h227" stroke="#000" stroke-width="3" fill="#fff"/><use xlink:href="#e" transform="matrix(1,0,0,1,1752,354) translate(0 118.40104166666667)"/><path d="M1404.66 1360.47a9.05 9.05 0 0 0 8.34 5.53h121a6 6 0 0 1 6 6v202a6 6 0 0 1-6 6h-348a6 6 0 0 1-6-6v-228a6 6 0 0 1 6-6h204a9.05 9.05 0 0 1 8.34 5.53zM1180 1366h227" stroke="#000" stroke-width="3" fill="#fff"/><use xlink:href="#f" transform="matrix(1,0,0,1,1192,1374) translate(0 118.40104166666667)"/><path d="M1964.66 1260.47a9.05 9.05 0 0 0 8.34 5.53h121a6 6 0 0 1 6 6v202a6 6 0 0 1-6 6h-348a6 6 0 0 1-6-6v-228a6 6 0 0 1 6-6h204a9.05 9.05 0 0 1 8.34 5.53zM1740 1266h227" stroke="#000" stroke-width="3" fill="#fff"/><use xlink:href="#g" transform="matrix(1,0,0,1,1752,1274) translate(0 118.40104166666667)"/><path d="M1964.66 1520.47a9.05 9.05 0 0 0 8.34 5.53h121a6 6 0 0 1 6 6v202a6 6 0 0 1-6 6h-348a6 6 0 0 1-6-6v-228a6 6 0 0 1 6-6h204a9.05 9.05 0 0 1 8.34 5.53zM1740 1526h227" stroke="#000" stroke-width="3" fill="#fff"/><use xlink:href="#h" transform="matrix(1,0,0,1,1752,1534) translate(0 118.40104166666667)"/><path d="M1404.66 1100.47a9.05 9.05 0 0 0 8.34 5.53h121a6 6 0 0 1 6 6v202a6 6 0 0 1-6 6h-348a6 6 0 0 1-6-6v-228a6 6 0 0 1 6-6h204a9.05 9.05 0 0 1 8.34 5.53zM1180 1106h227" stroke="#000" stroke-width="3" fill="#fff"/><use xlink:href="#i" transform="matrix(1,0,0,1,1192,1114) translate(0 118.40104166666667)"/><path d="M1404.66 1620.47a9.05 9.05 0 0 0 8.34 5.53h121a6 6 0 0 1 6 6v202a6 6 0 0 1-6 6h-348a6 6 0 0 1-6-6v-228a6 6 0 0 1 6-6h204a9.05 9.05 0 0 1 8.34 5.53zM1180 1626h227" stroke="#000" stroke-width="3" fill="#fff"/><use xlink:href="#j" transform="matrix(1,0,0,1,1192,1634) translate(0 118.40104166666667)"/><path d="M1404.66 1880.47a9.05 9.05 0 0 0 8.34 5.53h121a6 6 0 0 1 6 6v202a6 6 0 0 1-6 6h-348a6 6 0 0 1-6-6v-228a6 6 0 0 1 6-6h204a9.05 9.05 0 0 1 8.34 5.53zM1180 1886h227" stroke="#000" stroke-width="3" fill="#fff"/><use xlink:href="#k" transform="matrix(1,0,0,1,1192,1894) translate(0 118.40104166666667)"/><path d="M1404.66 2140.47a9.05 9.05 0 0 0 8.34 5.53h121a6 6 0 0 1 6 6v202a6 6 0 0 1-6 6h-348a6 6 0 0 1-6-6v-228a6 6 0 0 1 6-6h204a9.05 9.05 0 0 1 8.34 5.53zM1180 2146h227" stroke="#000" stroke-width="3" fill="#fff"/><use xlink:href="#l" transform="matrix(1,0,0,1,1192,2154) translate(0 118.40104166666667)"/><path d="M1542 420h180.12" stroke="#3a414a" fill="none"/><path d="M1542 420.48h-.5v-.96h.5z" stroke="#3a414a" stroke-width=".05" fill="#3a414a"/><path d="M1736.88 420l-14.26 4.63v-9.26z" stroke="#3a414a" fill="#3a414a"/><path d="M1542 1460h92a6 6 0 0 0 6-6v-88a6 6 0 0 1 6-6h76.12" stroke="#3a414a" fill="none"/><path d="M1542 1460.47h-.5v-.94h.5z" stroke="#3a414a" stroke-width=".05" fill="#3a414a"/><path d="M1736.88 1360l-14.26 4.63v-9.27z" stroke="#3a414a" fill="#3a414a"/><path d="M1722.12 1620H1646a6 6 0 0 1-6-6v-153.5" stroke="#3a414a" fill="none"/><path d="M1736.88 1620l-14.26 4.63v-9.27z" stroke="#3a414a" fill="#3a414a"/><path d="M1640 1460.5v-.5M982 420h180.12" stroke="#3a414a" fill="none"/><path d="M982 420.48h-.5v-.96h.5z" stroke="#3a414a" stroke-width=".05" fill="#3a414a"/><path d="M1176.88 420l-14.26 4.63v-9.26z" stroke="#3a414a" fill="#3a414a"/><path d="M1162.12 680h-86.3a6 6 0 0 1-6-6V420.5" stroke="#3a414a" fill="none"/><path d="M1176.88 680l-14.26 4.63v-9.26z" stroke="#3a414a" fill="#3a414a"/><path d="M1069.83 420.5v-.5M1162.12 940h-86.3a6 6 0 0 1-6-6V680.5" stroke="#3a414a" fill="none"/><path d="M1176.88 940l-14.26 4.63v-9.26z" stroke="#3a414a" fill="#3a414a"/><path d="M1069.83 680.5v-.5M1162.12 1200h-86.3a6 6 0 0 1-6-6V940.5" stroke="#3a414a" fill="none"/><path d="M1176.88 1200l-14.26 4.63v-9.27z" stroke="#3a414a" fill="#3a414a"/><path d="M1069.83 940.5v-.5M1162.12 1460h-86.3a6 6 0 0 1-6-6v-253.5" stroke="#3a414a" fill="none"/><path d="M1176.88 1460l-14.26 4.63v-9.27z" stroke="#3a414a" fill="#3a414a"/><path d="M1069.83 1200.5v-.5M1162.12 1720h-86.3a6 6 0 0 1-6-6v-253.5" stroke="#3a414a" fill="none"/><path d="M1176.88 1720l-14.26 4.63v-9.27z" stroke="#3a414a" fill="#3a414a"/><path d="M1069.83 1460.5v-.5M1162.12 1980h-86.3a6 6 0 0 1-6-6v-253.5" stroke="#3a414a" fill="none"/><path d="M1176.88 1980l-14.26 4.63v-9.27z" stroke="#3a414a" fill="#3a414a"/><path d="M1069.83 1720.5v-.5M1162.12 2240h-86.3a6 6 0 0 1-6-6v-253.5" stroke="#3a414a" fill="none"/><path d="M1176.88 2240l-14.26 4.64v-9.28z" stroke="#3a414a" fill="#3a414a"/><path d="M1069.83 1980.5v-.5" stroke="#3a414a" fill="none"/><defs><path d="M677 24c-213 0-288-135-325-197h-20V0H158v-1490h180v551h14c37-59 106-193 324-193 279 0 474 222 474 576 0 356-194 580-473 580zm-27-161c209 0 317-186 317-421 0-232-105-413-317-413-206 0-314 166-314 413 0 249 111 421 314 421" id="m"/><path d="M537 14c-226 0-379-139-379-422v-710h180v695c0 172 97 275 253 275 160 0 281-109 281-300v-670h181V0H879v-209C806-46 684 14 537 14" id="n"/><path d="M611 442c-248 0-391-105-460-228l146-94c47 65 117 165 314 165 178 0 307-82 307-266v-224h-17C863-141 792-18 576-18c-268 0-472-195-472-546 0-346 197-568 476-568 216 0 288 133 326 193h17v-179h175V29c0 289-215 413-487 413zm-5-620c203 0 314-146 314-390 0-237-108-403-314-403-213 0-319 180-319 403 0 230 109 390 319 390" id="o"/><path d="M158 0v-1118h174v172h12c41-113 157-188 290-188 26 0 70 2 91 3v181c-11-2-60-10-108-10-161 0-279 109-279 260V0H158" id="p"/><path d="M628 24c-324 0-524-230-524-574 0-343 198-582 503-582 237 0 487 146 487 559v75H286c9 234 145 362 343 362 132 0 231-58 273-172l174 48C1024-91 857 24 628 24zM287-650h624c-17-190-120-322-304-322-192 0-309 151-320 322" id="q"/><path d="M158 418v-1536h174v179h20c37-59 106-193 324-193 279 0 474 222 474 576 0 356-194 580-473 580-213 0-288-135-325-197h-14v591H158zm492-555c209 0 317-186 317-421 0-232-105-413-317-413-206 0-314 166-314 413 0 249 111 421 314 421" id="r"/><path d="M613 24c-304 0-509-231-509-576 0-350 205-580 509-580 305 0 511 230 511 580 0 345-206 576-511 576zm0-161c226 0 329-195 329-415 0-222-103-419-329-419-223 0-326 196-326 419 0 220 103 415 326 415" id="s"/><path d="M598-1118v154H368v674c0 100 37 144 132 144 23 0 62-6 92-12L629-6c-37 13-88 20-134 20-193 0-307-107-307-290v-688H20v-154h168v-266h180v266h230" id="t"/><g id="a"><use transform="matrix(0.026041666666666668,0,0,0.026041666666666668,0,0)" xlink:href="#m"/><use transform="matrix(0.026041666666666668,0,0,0.026041666666666668,32.65625,0)" xlink:href="#n"/><use transform="matrix(0.026041666666666668,0,0,0.026041666666666668,64.19270833333334,0)" xlink:href="#o"/><use transform="matrix(0.026041666666666668,0,0,0.026041666666666668,96.90104166666669,0)" xlink:href="#p"/><use transform="matrix(0.026041666666666668,0,0,0.026041666666666668,116.09375,0)" xlink:href="#q"/><use transform="matrix(0.026041666666666668,0,0,0.026041666666666668,147.1875,0)" xlink:href="#r"/><use transform="matrix(0.026041666666666668,0,0,0.026041666666666668,179.84375,0)" xlink:href="#s"/><use transform="matrix(0.026041666666666668,0,0,0.026041666666666668,211.82291666666666,0)" xlink:href="#p"/><use transform="matrix(0.026041666666666668,0,0,0.026041666666666668,232.734375,0)" xlink:href="#t"/><use transform="matrix(0.026041666666666668,0,0,0.026041666666666668,249.6614583333333,0)" xlink:href="#q"/><use transform="matrix(0.026041666666666668,0,0,0.026041666666666668,280.7552083333333,0)" xlink:href="#p"/></g><path d="M338-670V0H158v-1118h173l1 207c72-158 192-221 342-221 226 0 378 139 378 422V0H872v-695c0-172-96-275-252-275-161 0-282 109-282 300" id="u"/><path d="M158 0v-1118h180V0H158zm91-1301c-68 0-125-53-125-119s57-119 125-119c69 0 126 53 126 119s-57 119-126 119" id="v"/><path d="M140 405l46-156c120 36 205 19 263-150l32-93L54-1118h197c107 313 237 620 324 950 87-331 219-637 326-950h196L606 167c-68 178-176 259-334 259-64 0-113-12-132-21" id="w"/><g id="b"><use transform="matrix(0.026041666666666668,0,0,0.026041666666666668,0,0)" xlink:href="#q"/><use transform="matrix(0.026041666666666668,0,0,0.026041666666666668,31.09375,0)" xlink:href="#u"/><use transform="matrix(0.026041666666666668,0,0,0.026041666666666668,62.60416666666667,0)" xlink:href="#t"/><use transform="matrix(0.026041666666666668,0,0,0.026041666666666668,80.05208333333334,0)" xlink:href="#v"/><use transform="matrix(0.026041666666666668,0,0,0.026041666666666668,92.96875000000001,0)" xlink:href="#t"/><use transform="matrix(0.026041666666666668,0,0,0.026041666666666668,111.45833333333336,0)" xlink:href="#w"/></g><path d="M538 24C308 24 148-78 108-271l171-41c32 123 123 178 257 178 156 0 256-77 256-169 0-77-54-128-164-154l-186-44c-203-48-300-148-300-305 0-192 176-326 414-326 230 0 351 112 402 269l-163 42c-31-80-94-158-238-158-133 0-233 69-233 162 0 83 57 129 188 160l169 40c203 48 298 149 298 302 0 196-179 339-441 339" id="x"/><path d="M481 0L54-1118h197c107 314 236 620 325 951 87-331 217-637 324-951h197L670 0H481" id="y"/><path d="M613 24c-304 0-509-231-509-576 0-350 205-580 509-580 216 0 392 114 453 309l-173 49c-33-115-133-197-280-197-223 0-326 196-326 419 0 220 103 415 326 415 150 0 252-85 285-206l172 49C1010-95 832 24 613 24" id="z"/><g id="c"><use transform="matrix(0.026041666666666668,0,0,0.026041666666666668,0,0)" xlink:href="#x"/><use transform="matrix(0.026041666666666668,0,0,0.026041666666666668,28.151041666666668,0)" xlink:href="#q"/><use transform="matrix(0.026041666666666668,0,0,0.026041666666666668,59.24479166666667,0)" xlink:href="#p"/><use transform="matrix(0.026041666666666668,0,0,0.026041666666666668,80.15625,0)" xlink:href="#y"/><use transform="matrix(0.026041666666666668,0,0,0.026041666666666668,110.13020833333334,0)" xlink:href="#v"/><use transform="matrix(0.026041666666666668,0,0,0.026041666666666668,123.046875,0)" xlink:href="#z"/><use transform="matrix(0.026041666666666668,0,0,0.026041666666666668,153.515625,0)" xlink:href="#q"/></g><g id="d"><use transform="matrix(0.026041666666666668,0,0,0.026041666666666668,0,0)" xlink:href="#p"/><use transform="matrix(0.026041666666666668,0,0,0.026041666666666668,19.192708333333332,0)" xlink:href="#q"/><use transform="matrix(0.026041666666666668,0,0,0.026041666666666668,50.28645833333333,0)" xlink:href="#r"/><use transform="matrix(0.026041666666666668,0,0,0.026041666666666668,82.94270833333333,0)" xlink:href="#s"/><use transform="matrix(0.026041666666666668,0,0,0.026041666666666668,114.921875,0)" xlink:href="#x"/><use transform="matrix(0.026041666666666668,0,0,0.026041666666666668,143.07291666666666,0)" xlink:href="#v"/><use transform="matrix(0.026041666666666668,0,0,0.026041666666666668,155.98958333333331,0)" xlink:href="#t"/><use transform="matrix(0.026041666666666668,0,0,0.026041666666666668,172.91666666666663,0)" xlink:href="#s"/><use transform="matrix(0.026041666666666668,0,0,0.026041666666666668,204.8958333333333,0)" xlink:href="#p"/><use transform="matrix(0.026041666666666668,0,0,0.026041666666666668,225.80729166666663,0)" xlink:href="#w"/></g><path d="M158 0v-1118h175l1 205c55-151 181-225 313-225 147 0 245 90 285 228 53-141 190-228 352-228 194 0 352 125 352 384V0h-181v-749c0-161-105-225-225-225-151 0-243 103-243 244V0H807v-767c0-124-93-207-219-207-131 0-250 92-250 270V0H158" id="A"/><g id="e"><use transform="matrix(0.026041666666666668,0,0,0.026041666666666668,0,0)" xlink:href="#q"/><use transform="matrix(0.026041666666666668,0,0,0.026041666666666668,31.09375,0)" xlink:href="#u"/><use transform="matrix(0.026041666666666668,0,0,0.026041666666666668,62.60416666666667,0)" xlink:href="#n"/><use transform="matrix(0.026041666666666668,0,0,0.026041666666666668,94.140625,0)" xlink:href="#A"/><use transform="matrix(0.026041666666666668,0,0,0.026041666666666668,140.859375,0)" xlink:href="#x"/></g><path d="M577 24c-279 0-473-224-473-580 0-354 195-576 474-576 218 0 287 134 324 193h14v-551h180V0H922v-173h-20C865-111 790 24 577 24zm27-161c203 0 314-172 314-421 0-247-108-413-314-413-212 0-317 181-317 413 0 235 108 421 317 421" id="B"/><g id="f"><use transform="matrix(0.026041666666666668,0,0,0.026041666666666668,0,0)" xlink:href="#B"/><use transform="matrix(0.026041666666666668,0,0,0.026041666666666668,33.4375,0)" xlink:href="#t"/><use transform="matrix(0.026041666666666668,0,0,0.026041666666666668,50.36458333333333,0)" xlink:href="#s"/></g><g id="g"><use transform="matrix(0.026041666666666668,0,0,0.026041666666666668,0,0)" xlink:href="#p"/><use transform="matrix(0.026041666666666668,0,0,0.026041666666666668,19.192708333333332,0)" xlink:href="#q"/><use transform="matrix(0.026041666666666668,0,0,0.026041666666666668,50.28645833333333,0)" xlink:href="#x"/><use transform="matrix(0.026041666666666668,0,0,0.026041666666666668,78.4375,0)" xlink:href="#r"/><use transform="matrix(0.026041666666666668,0,0,0.026041666666666668,111.09375,0)" xlink:href="#s"/><use transform="matrix(0.026041666666666668,0,0,0.026041666666666668,143.07291666666666,0)" xlink:href="#u"/><use transform="matrix(0.026041666666666668,0,0,0.026041666666666668,174.58333333333331,0)" xlink:href="#x"/><use transform="matrix(0.026041666666666668,0,0,0.026041666666666668,202.73437499999997,0)" xlink:href="#q"/></g><path d="M1096 418H916v-591h-14C865-111 790 24 577 24c-279 0-473-224-473-580 0-354 195-576 474-576 218 0 287 134 324 193h20v-179h174V418zM604-137c203 0 314-172 314-421 0-247-108-413-314-413-212 0-317 181-317 413 0 235 108 421 317 421" id="C"/><g id="h"><use transform="matrix(0.026041666666666668,0,0,0.026041666666666668,0,0)" xlink:href="#p"/><use transform="matrix(0.026041666666666668,0,0,0.026041666666666668,19.192708333333332,0)" xlink:href="#q"/><use transform="matrix(0.026041666666666668,0,0,0.026041666666666668,50.28645833333333,0)" xlink:href="#C"/><use transform="matrix(0.026041666666666668,0,0,0.026041666666666668,82.94270833333333,0)" xlink:href="#n"/><use transform="matrix(0.026041666666666668,0,0,0.026041666666666668,114.47916666666664,0)" xlink:href="#q"/><use transform="matrix(0.026041666666666668,0,0,0.026041666666666668,145.57291666666666,0)" xlink:href="#x"/><use transform="matrix(0.026041666666666668,0,0,0.026041666666666668,173.72395833333331,0)" xlink:href="#t"/></g><path d="M338-1490V0H158v-1490h180" id="D"/><g id="i"><use transform="matrix(0.026041666666666668,0,0,0.026041666666666668,0,0)" xlink:href="#z"/><use transform="matrix(0.026041666666666668,0,0,0.026041666666666668,30.46875,0)" xlink:href="#s"/><use transform="matrix(0.026041666666666668,0,0,0.026041666666666668,62.44791666666667,0)" xlink:href="#u"/><use transform="matrix(0.026041666666666668,0,0,0.026041666666666668,93.95833333333334,0)" xlink:href="#t"/><use transform="matrix(0.026041666666666668,0,0,0.026041666666666668,111.40625,0)" xlink:href="#p"/><use transform="matrix(0.026041666666666668,0,0,0.026041666666666668,130.59895833333334,0)" xlink:href="#s"/><use transform="matrix(0.026041666666666668,0,0,0.026041666666666668,162.578125,0)" xlink:href="#D"/><use transform="matrix(0.026041666666666668,0,0,0.026041666666666668,175.49479166666666,0)" xlink:href="#D"/><use transform="matrix(0.026041666666666668,0,0,0.026041666666666668,188.41145833333331,0)" xlink:href="#q"/><use transform="matrix(0.026041666666666668,0,0,0.026041666666666668,219.5052083333333,0)" xlink:href="#p"/></g><path d="M678-1118v154H420V0H240v-964H20v-154h220v-149c0-194 155-293 318-293 85 0 141 18 168 30l-50 154c-19-6-47-17-97-17-111 0-159 58-159 166v109h258" id="E"/><g id="j"><use transform="matrix(0.026041666666666668,0,0,0.026041666666666668,0,0)" xlink:href="#z"/><use transform="matrix(0.026041666666666668,0,0,0.026041666666666668,30.46875,0)" xlink:href="#s"/><use transform="matrix(0.026041666666666668,0,0,0.026041666666666668,62.44791666666667,0)" xlink:href="#u"/><use transform="matrix(0.026041666666666668,0,0,0.026041666666666668,93.95833333333334,0)" xlink:href="#E"/><use transform="matrix(0.026041666666666668,0,0,0.026041666666666668,113.6979166666667,0)" xlink:href="#v"/><use transform="matrix(0.026041666666666668,0,0,0.026041666666666668,126.61458333333336,0)" xlink:href="#o"/></g><path d="M65 0l393-574-370-544h210c88 136 192 297 267 435 67-142 176-302 264-435h206L661-564 1053 0H844c-94-144-206-310-287-458C484-308 366-142 273 0H65" id="F"/><g id="k"><use transform="matrix(0.026041666666666668,0,0,0.026041666666666668,0,0)" xlink:href="#q"/><use transform="matrix(0.026041666666666668,0,0,0.026041666666666668,29.895833333333336,0)" xlink:href="#F"/><use transform="matrix(0.026041666666666668,0,0,0.026041666666666668,57.8125,0)" xlink:href="#z"/><use transform="matrix(0.026041666666666668,0,0,0.026041666666666668,88.28125,0)" xlink:href="#q"/><use transform="matrix(0.026041666666666668,0,0,0.026041666666666668,119.375,0)" xlink:href="#r"/><use transform="matrix(0.026041666666666668,0,0,0.026041666666666668,152.03125,0)" xlink:href="#t"/><use transform="matrix(0.026041666666666668,0,0,0.026041666666666668,169.47916666666666,0)" xlink:href="#v"/><use transform="matrix(0.026041666666666668,0,0,0.026041666666666668,182.39583333333331,0)" xlink:href="#s"/><use transform="matrix(0.026041666666666668,0,0,0.026041666666666668,214.37499999999997,0)" xlink:href="#u"/></g><g id="l"><use transform="matrix(0.026041666666666668,0,0,0.026041666666666668,0,0)" xlink:href="#x"/><use transform="matrix(0.026041666666666668,0,0,0.026041666666666668,28.151041666666668,0)" xlink:href="#q"/><use transform="matrix(0.026041666666666668,0,0,0.026041666666666668,59.24479166666667,0)" xlink:href="#z"/><use transform="matrix(0.026041666666666668,0,0,0.026041666666666668,89.71354166666667,0)" xlink:href="#n"/><use transform="matrix(0.026041666666666668,0,0,0.026041666666666668,121.25,0)" xlink:href="#p"/><use transform="matrix(0.026041666666666668,0,0,0.026041666666666668,142.16145833333331,0)" xlink:href="#v"/><use transform="matrix(0.026041666666666668,0,0,0.026041666666666668,155.07812499999997,0)" xlink:href="#t"/><use transform="matrix(0.026041666666666668,0,0,0.026041666666666668,173.5677083333333,0)" xlink:href="#w"/></g></defs></g></svg>